<?xml version="1.0" encoding="UTF-8" standalone="no"?>
<!-- Created with Inkscape (http://www.inkscape.org/) -->

<svg
   xmlns:dc="http://purl.org/dc/elements/1.1/"
   xmlns:cc="http://creativecommons.org/ns#"
   xmlns:rdf="http://www.w3.org/1999/02/22-rdf-syntax-ns#"
   xmlns:svg="http://www.w3.org/2000/svg"
   xmlns="http://www.w3.org/2000/svg"
   xmlns:sodipodi="http://sodipodi.sourceforge.net/DTD/sodipodi-0.dtd"
   xmlns:inkscape="http://www.inkscape.org/namespaces/inkscape"
   width="37.375999mm"
   height="57mm"
   viewBox="0 0 37.375999 57"
   version="1.1"
   id="svg4675"
   inkscape:version="0.92.3 (2405546, 2018-03-11)"
   sodipodi:docname="logotipo.svg">
  <defs
     id="defs4669" />
  <sodipodi:namedview
     id="base"
     pagecolor="#ffffff"
     bordercolor="#666666"
     borderopacity="1.0"
     inkscape:pageopacity="0.0"
     inkscape:pageshadow="2"
     inkscape:zoom="2.0155172"
     inkscape:cx="88.143713"
     inkscape:cy="106.27887"
     inkscape:document-units="mm"
     inkscape:current-layer="layer1"
     showgrid="false"
     inkscape:window-width="1600"
     inkscape:window-height="837"
     inkscape:window-x="-8"
     inkscape:window-y="-8"
     inkscape:window-maximized="1"
     inkscape:pagecheckerboard="true" />
  <metadata
     id="metadata4672">
    <rdf:RDF>
      <cc:Work
         rdf:about="">
        <dc:format>image/svg+xml</dc:format>
        <dc:type
           rdf:resource="http://purl.org/dc/dcmitype/StillImage" />
        <dc:title></dc:title>
      </cc:Work>
    </rdf:RDF>
  </metadata>
  <g
     inkscape:label="Camada 1"
     inkscape:groupmode="layer"
     id="layer1"
     transform="translate(0,-240)">
    <g
       id="g4728"
       transform="matrix(1.0114278,0,0,1.0114278,-0.42665196,-0.54581988)">
      <g
         id="g59"
         style="clip-rule:evenodd;fill-rule:evenodd;image-rendering:optimizeQuality;shape-rendering:geometricPrecision;text-rendering:geometricPrecision"
         transform="matrix(0.01020387,0,0,0.01020387,-91.698707,237.82797)">
        <path
           class="fil3"
           d="m 11283,419 5,7 1,2 3,7 1,2 v 0 c 3,6 6,12 9,18 v 1 c 4,9 8,18 12,28 v 0 l 3,9 v 1 0 c 8,19 14,39 19,59 v 0 c 3,13 7,26 9,40 v 0 c 5,24 8,48 10,72 v 0 0 c 1,7 1,13 2,19 v 2 4 l 1,6 v 0 7 1 4 1 6 6 2 5 6 7 0 6 c 0,4 0,8 0,13 l -1,6 c -1,23 -3,45 -6,68 l -1,4 v 4 l -1,4 -1,4 v 3 0 l -1,4 -1,5 -1,6 v 1 2 l -1,1 -1,9 h -1 l -1,8 -1,1 v 2 l -2,8 v 0 0 1 l -2,9 -1,2 -2,7 v 1 0 l -3,9 v 1 1 c -2,6 -4,12 -6,18 v 0 0 c -2,6 -4,13 -6,19 v 0 c -2,6 -4,12 -7,18 v 0 l -4,9 v 0 2 l -3,7 v 0 l -2,3 -1,4 -1,2 -1,1 -3,7 v 1 l -1,3 -4,6 v 0 0 l -3,7 -1,2 v 0 l -4,8 c -66,124 -164,214 -261,306 -6,-14 -13,-28 -19,-41 v 0 l -1,-1 c -78,-162 -176,-316 -203,-504 -32,-213 43,-466 203,-631 46,14 90,37 131,67 l 1,1 c 7,6 14,11 21,17 h 1 l 5,4 v 1 c 4,3 7,6 11,9 l 5,5 c 12,11 24,23 35,35 v 1 c 6,7 12,14 18,21 l 1,1 c 17,21 32,43 46,67 0,0 0,1 0,1 2,4 4,7 6,11 v 0 0 0 z m 41,530 c -2,6 -4,13 -6,19 z"
           id="path57"
           inkscape:connector-curvature="0"
           style="fill:#cf3034;fill-rule:nonzero" />
      </g>
      <g
         id="g4633"
         style="clip-rule:evenodd;fill-rule:evenodd;image-rendering:optimizeQuality;shape-rendering:geometricPrecision;text-rendering:geometricPrecision"
         transform="matrix(0.01020387,0,0,0.01020387,-91.698707,237.82797)">
        <path
           style="clip-rule:evenodd;fill:#ffffff;fill-opacity:1;fill-rule:evenodd;image-rendering:optimizeQuality;shape-rendering:geometricPrecision;text-rendering:geometricPrecision"
           id="path51"
           d="m 11283,419 5,7 1,2 3,7 1,2 v 0 c 3,6 6,12 9,18 v 1 c 4,9 8,18 12,28 v 0 l 3,9 v 1 0 c 8,19 14,39 19,59 v 0 c 3,13 7,26 9,40 v 0 c 5,24 8,48 10,72 v 0 0 c 1,7 1,13 2,19 v 2 4 l 1,6 v 0 7 1 4 1 6 6 2 5 6 7 0 6 c 0,4 0,8 0,13 l -1,6 c -1,23 -3,45 -6,68 l -1,4 v 4 l -1,4 -1,4 v 3 0 l -1,4 -1,5 -1,6 v 1 2 l -1,1 -1,9 h -1 l -1,8 -1,1 v 2 l -2,8 v 0 0 1 l -2,9 -1,2 -2,7 v 1 0 l -3,9 v 1 1 c -2,6 -4,12 -6,18 v 0 0 c -2,6 -4,13 -6,19 v 0 c -2,6 -4,12 -7,18 v 0 l -4,9 v 0 2 l -3,7 v 0 l -2,3 -1,4 -1,2 -1,1 -3,7 v 1 l -1,3 -4,6 v 0 0 l -3,7 -1,2 v 0 l -4,8 c -81,152 -210,253 -325,367 v 0 l -1,1 v 0 l -1,1 v 0 l -1,1 v 0 l -1,1 v 0 l -1,1 v 0 h -1 v 1 h -1 v 1 h -1 v 1 l -1,1 v 0 l -1,1 v 0 l -1,1 v 0 l -1,1 v 0 l -1,1 v 0 l -1,1 v 0 l -1,1 v 0 l -1,1 v 0 0 l -1,1 v 0 l -1,1 v 0 l -1,1 v 0 l -1,1 v 0 l -1,1 v 1 0 h -1 v 1 h -1 v 1 h -1 v 1 h -1 l -1,1 v 1 h -1 v 0 l -1,1 v 0 l -1,1 v 0 l -1,1 v 1 h -1 v 1 h -1 v 1 0 h -1 c -102,109 -194,242 -207,407 -85,-162 -242,-251 -392,-310 l -1,-1 v 0 c -151,-60 -310,-102 -443,-210 -159,-129 -268,-360 -248,-579 v 0 0 h 1 v 0 0 0 -1 0 -1 0 -1 0 0 0 -1 0 0 0 0 0 0 -1 0 0 -4 0 l 1,-9 h 1 c 5,-46 17,-91 34,-132 v -1 c 3,-8 7,-16 10,-23 l 1,-2 3,-7 h 1 l 3,-7 1,-1 c 2,-5 5,-10 7,-15 l 1,-1 4,-6 v -2 l 4,-6 1,-1 4,-7 v 0 l 4,-7 1,-1 4,-6 1,-1 3,-5 2,-3 3,-5 2,-1 4,-6 1,-1 3,-5 2,-2 4,-5 1,-2 4,-4 2,-3 3,-3 3,-3 3,-4 2,-2 4,-4 2,-2 3,-3 3,-3 3,-3 3,-3 3,-3 2,-2 4,-4 3,-2 3,-3 3,-3 2,-2 5,-3 1,-1 5,-4 2,-2 4,-3 2,-2 4,-3 3,-2 4,-3 3,-2 3,-2 3,-2 4,-3 3,-1 4,-3 3,-2 4,-2 2,-1 5,-3 h 1 l 6,-4 h 1 l 6,-3 2,-1 5,-3 7,-3 v 0 l 7,-3 h 1 l 6,-3 h 1 l 7,-3 v 0 l 7,-2 1,-1 7,-2 7,-2 h 1 l 7,-2 v 0 0 h 1 v 0 0 -1 0 h 2 v 0 h 1 1 l 2,-1 h 2 l 2,-1 h 2 l 2,-1 4,-1 h 2 c 28,-5 58,-7 89,-6 h 3 7 2 4 l 3,1 h 2 c 5,0 11,1 16,1 v 0 h 1 v 0 0 1 h 6 1 l 5,1 7,1 4,1 h 4 l 2,1 h 2 l 6,1 3,1 6,1 h 1 l 7,2 5,1 4,1 3,1 7,1 1,1 7,2 h 3 l 5,2 2,1 h 1 v 0 l 8,2 1,1 6,2 h 2 l 1,1 c 5,1 10,3 16,5 l 1,1 7,2 1,1 h 1 l 7,3 1,1 8,3 v 0 l 5,2 1,1 4,2 h 1 l 6,3 v 0 l 6,3 v 0 l 5,2 3,2 3,2 6,3 h 1 l 3,2 4,2 3,2 v 0 l 6,3 v 0 l 4,2 2,2 5,3 5,3 v 0 l 3,2 4,3 2,1 2,1 5,4 5,3 1,1 4,3 2,1 6,5 4,3 3,3 h 1 l 4,4 h 1 l 5,5 4,3 1,1 4,4 v 0 l 5,4 5,4 v 1 l 4,4 v 0 l 5,5 3,3 2,2 3,3 1,1 4,5 v 0 l 2,2 3,4 2,2 4,5 1,1 h 1 c 1,2 3,5 5,7 v 0 l 5,7 h 1 v 1 l 4,6 c 2,1 3,3 4,5 v 0 0 l 1,1 v 0 0 0 1 0 0 h 1 v 0 0 1 0 0 0 0 l 1,1 v 0 0 0 0 0 0 l 1,2 v 0 0 h 1 v 1 0 0 0 0 0 1 0 0 h 1 v 0 1 0 0 l 2,2 v 0 0 c 33,-195 218,-359 385,-384 l 2,-1 h 1 3 1 l 1,-1 h 1 1 4 2 v 0 l 1,-1 v 0 h 4 1 2 1 v 0 h 2 1 l 1,-1 h 2 v 0 h 2 6 1 v 0 h 7 1 7 1 8 v 0 c 3,0 5,0 8,0 v 0 l 8,1 v 0 l 6,1 h 1 1 1 v 0 0 h 1 v 0 c 72,8 144,38 207,84 l 1,1 c 7,6 14,11 21,17 h 1 l 5,4 v 1 c 4,3 7,6 11,9 l 5,5 c 12,11 24,23 35,35 v 1 c 6,7 12,14 18,21 l 1,1 c 17,21 32,43 46,67 0,0 0,1 0,1 2,4 4,7 6,11 v 0 0 0 z m 41,530 c -2,6 -4,13 -6,19 z"
           class="fil1"
           inkscape:connector-curvature="0" />
        <path
           style="fill:#ffffff;fill-opacity:1;fill-rule:nonzero"
           id="path55"
           d="m 12468,1413 v 0 c -10,11 -20,22 -31,33 v 0 l -1,1 -7,7 -1,1 -7,7 h -1 l -1,1 -5,6 -2,1 -2,1 -5,5 v 0 l -4,4 -2,2 -4,3 -3,3 v 0 l -4,3 -2,2 -1,1 -6,5 -1,1 h -1 l -3,3 c -4,3 -9,7 -13,11 h -1 l -9,7 -1,1 c -24,18 -48,34 -73,49 h -1 c -6,4 -12,7 -18,10 l -1,1 -10,5 v 0 l -10,5 v 0 l -9,5 h -1 v 1 l -10,4 -1,1 -8,3 v 1 h -1 l -8,3 -1,1 h -1 l -1,1 -7,3 h -1 l -3,1 -6,3 h -1 -1 v 1 l -8,2 -1,1 -3,1 -7,3 c -180,63 -361,48 -541,55 h -1 -1 v 0 h -1 -1 -1 -1 v 0 h -1 -1 v 0 l -1,1 h -1 v 0 h -1 -1 -1 -1 -1 v 0 h -3 -1 v 0 h -1 -1 c -10,1 -20,1 -31,2 v 0 c -165,11 -340,52 -475,176 52,-196 -9,-386 -87,-548 v 0 l -1,-1 c -78,-162 -176,-316 -203,-504 -34,-226 51,-496 232,-659 v 0 0 h 1 v -1 0 0 0 0 0 0 h 1 v -1 0 0 0 0 0 h 1 v 0 0 -1 0 0 0 0 h 1 v 0 0 0 -1 0 0 l 4,-3 c 26,-23 54,-43 82,-60 l 1,-1 c 5,-3 11,-6 17,-10 v 0 l 8,-4 2,-1 7,-4 9,-4 1,-1 8,-4 h 1 l 8,-4 2,-1 7,-3 2,-1 7,-3 h 2 l 6,-3 4,-2 5,-2 4,-1 6,-2 4,-1 4,-2 5,-2 4,-1 6,-2 3,-1 7,-2 h 2 l 7,-2 2,-1 6,-1 5,-1 4,-1 4,-1 6,-2 h 3 l 7,-2 h 2 l 6,-1 3,-1 7,-1 h 3 l 6,-1 3,-1 7,-1 h 1 l 8,-1 h 1 8 l 2,-1 h 7 2 l 7,-1 h 2 7 2 8 1 c 33,0 65,3 96,10 h 1 c 26,6 50,14 74,24 3,2 5,3 8,4 v 0 l 8,4 v 0 l 7,4 h 1 v 0 0 0 l 1,1 v 0 0 0 0 0 h 1 v 1 c 52,28 101,71 142,124 v 0 l 4,5 4,6 v 0 l 3,3 3,4 2,3 4,7 h 1 v 1 l 5,7 1,1 5,8 v 0 l 5,8 v 1 c 29,46 51,97 66,150 v 1 c 2,6 4,12 5,19 l 1,2 2,8 v 1 2 l 2,7 v 2 l 2,9 v 0 l 1,9 1,3 1,8 v 1 1 l 1,8 v 2 l 1,7 v 3 l 1,1 v 7 0 4 l 1,5 v 4 1 7 1 2 l 1,6 v 4 7 2 0 2 l -1,7 v 2 9 1 c 0,3 0,6 -1,9 v 2 l -1,8 v 1 l -1,8 c 0,3 0,5 -1,8 v 0 c 0,0 0,0 0,0 v 0 0 0 1 0 0 0 0 0 0 0 0 1 0 0 0 0 0 0 0 1 0 0 0 0 0 0 0 1 0 0 0 0 0 0 0 0 1 0 0 0 l -1,3 v 0 0 0 0 0 0 0 1 0 0 0 0 0 0 0 0 0 1 0 0 l -1,4 v 0 0 0 c 174,-134 448,-129 604,-24 l 7,4 1,1 v 0 l 4,3 1,1 v 0 l 4,3 h 1 l 1,1 1,1 v 0 l 3,2 1,1 1,1 1,1 1,1 3,2 1,1 1,1 1,1 1,1 3,2 1,1 1,1 1,1 v 0 l 4,3 2,2 1,1 1,1 v 1 h 1 l 1,1 4,4 1,1 v 0 l 1,1 4,4 v 0 l 1,1 v 0 l 1,1 1,2 1,1 1,1 1,1 1,1 h 1 l 1,1 1,1 2,3 1,1 v 0 l 1,1 v 0 1 0 h 1 v 0 c 4,6 9,11 13,16 v 1 c 90,114 125,283 88,447 v 0 1 c 0,0 0,1 0,1 -1,4 -2,9 -3,13 v 1 h -1 c -28,111 -86,213 -163,300 z"
           class="fil2"
           inkscape:connector-curvature="0" />
        <path
           style="fill:#ffffff;fill-opacity:1"
           id="path61"
           d="m 10465,2949 c 18,-924 -175,-1294 -1437,-1872 477,1528 754,3009 843,4446 695,-1239 1626,-2439 2718,-3620 -1399,-37 -1678,171 -2124,1046 z"
           class="fil4"
           inkscape:connector-curvature="0" />
      </g>
      <path
         class="fil5"
         d="m 8.9726536,293.43905 c 0.02041,0.24489 0.03061,0.49999 0.05102,0.74488 7.0916864,-12.64259 16.5914864,-24.88723 27.7341164,-36.938 -13.39768,-0.34693 -16.73435,1.48976 -20.84651,9.10185 -3.510125,6.47946 -5.8162,19.58122 -6.9386264,27.09127 z"
         id="path63"
         style="clip-rule:evenodd;fill:#ffffff;fill-opacity:1;fill-rule:evenodd;stroke-width:0.01020387;image-rendering:optimizeQuality;shape-rendering:geometricPrecision;text-rendering:geometricPrecision"
         inkscape:connector-curvature="0" />
    </g>
  </g>
</svg>
